<svg xmlns="http://www.w3.org/2000/svg" viewBox="0 0 400 303.137">
  <path data-name="Pfad 9" d="M182.808 80.322h41.776l7.295-7.292 10.611 10.608 10.628-10.626-4.804-4.813V57.112h17.72l12.935 12.932h31.165l25.867 25.864-8.292 8.291 47.585 47.58 14.424-14.421h10.281v37.135h-23.878v28.85l-4.312 4.309-14.257-14.253-15.083 15.083-20.894-20.895h-11.772v32.663l-15.918 15.918v17.573l-3.81 3.812-44.929-44.929v-22.547l-26.36 26.363 8.623 8.62-25.2 25.2h-53.223l-28.434-28.432 10.528-10.529-8.62-8.62h-37.8v8.95l-13.595 13.6h-5.3l-5.637-5.637v-4.309l12.269-12.269-7.129-7.132 31.973-31.983V146.97l44.275-44.271h-6.457V90.271h15.916l4.639 4.641h10.944z" fill="#008e73"/>
  <path data-name="Pfad 10" d="M244.256 149.434l-2.622 2.622 2.189 2.189h8.064l1.647-1.647h9.716v18.733l1.664 1.667h3.534v-23.825l-2.692-2.686h-15.219l-.838-3.52h-15.476l6.885-6.345v-1.844l-2.306-2.309-7.123 7.118-5.095-5.09v5.227l4.435 4.432-3.047 3.049h-2.271v3.442l1.495 1.5-6.374 6.371h3.663l8.551-8.551-2.507-2.5 2-2 2.341 2.344h9.34z" fill="#97d2da" fill-rule="evenodd"/>
  <path data-name="Pfad 11" d="M286.373 277.012v-75.569l-66.837-66.837-47.594-47.591v-43.9m47.594 91.5L298.8 55.354m-42.766 75.064V43.11m-73.925 54.068h167.807" fill="none" stroke="#bfd76b" stroke-linecap="round" stroke-miterlimit="10" stroke-width=".659"/>
  <path data-name="Pfad 12" d="M39.496 245.448l34.8-34.794v-13.729h30.465l88.544-88.547m-78.231 78.234l-47.324-48.5" fill="none" stroke="#bfd76b" stroke-linecap="round" stroke-miterlimit="10" stroke-width=".659"/>
  <path data-name="Pfad 13" d="M178.052 86.519a5.723 5.723 0 11-5.723-5.723 5.723 5.723 0 015.723 5.723z" fill="#aeca35" fill-rule="evenodd"/>
  <circle data-name="Ellipse 2" cx="5.723" cy="5.723" r="5.723" transform="translate(250.698 90.962)" fill="#aeca35"/>
  <circle data-name="Ellipse 3" cx="5.723" cy="5.723" r="5.723" transform="translate(162.55 128.39)" fill="#aeca35"/>
  <path data-name="Pfad 14" d="M65.847 224.716a5.723 5.723 0 11-5.723-5.723 5.723 5.723 0 015.723 5.723zm224.917 27.8a5.726 5.726 0 11-5.723-5.545 5.723 5.723 0 015.723 5.545z" fill="#aeca35" fill-rule="evenodd"/>
  <path data-name="Pfad 15" d="M294.502 244.628h-15.33v15.333h15.33z" fill="#0d3883"/>
  <path data-name="Pfad 16" d="M281.387 245.97h10.91a.87.87 0 01.869.869v10.91a.872.872 0 01-.869.872h-10.91a.875.875 0 01-.875-.872v-10.91a.874.874 0 01.875-.869zm10.91.2h-10.91a.677.677 0 00-.68.674v10.91a.679.679 0 00.68.68h10.91a.676.676 0 00.674-.68v-10.915a.674.674 0 00-.675-.674z" fill="#fff" fill-rule="evenodd"/>
  <path data-name="Pfad 17" d="M290.865 250.761l-.666 1.05-2.4-.092.577-4.025h-.944l-1.348 4.025h-3.268a.575.575 0 000 1.15h3.267l1.348 4.022h.944l-.577-4.022 2.4-.095.666 1.053h.577l-.384-1.535.384-1.532z" fill="#fff"/>
  <path data-name="Pfad 18" d="M179.994 78.854h-15.33v15.33h15.33v-15.33z" fill="#0d3883"/>
  <path data-name="Pfad 19" d="M166.875 80.196h10.91a.867.867 0 01.869.869v10.91a.872.872 0 01-.869.872h-10.91a.872.872 0 01-.869-.872v-10.91a.866.866 0 01.869-.869zm10.907.192h-10.907a.677.677 0 00-.677.677v10.91a.679.679 0 00.677.68h10.91a.68.68 0 00.68-.68v-10.91a.683.683 0 00-.683-.677z" fill="#fff" fill-rule="evenodd"/>
  <path data-name="Pfad 20" d="M176.354 84.987l-.671 1.05-2.4-.092.577-4.025h-.944l-1.344 4.025h-3.267a.575.575 0 100 1.15h3.267l1.348 4.022h.944l-.577-4.022 2.4-.092.671 1.05h.577l-.384-1.535.384-1.532h-.577z" fill="#fff"/>
  <path data-name="Pfad 21" d="M297.706 248.099a.247.247 0 01.247-.247h1.535a.254.254 0 01.247.247v6.893h3.072a.247.247 0 01.247.247v1.406a.244.244 0 01-.247.247h-4.854a.244.244 0 01-.247-.247zm6.366 0a.258.258 0 01.247-.247h1.589a.244.244 0 01.244.247v5.23a1.6 1.6 0 103.2 0v-5.23a.244.244 0 01.244-.247h1.589a.258.258 0 01.247.247v5.333a3.682 3.682 0 01-7.361 0v-5.333zm13.428-.361a4.976 4.976 0 013.15 1.213.229.229 0 01.029.35l-1.021 1.084a.272.272 0 01-.347.011 2.381 2.381 0 00-1.693-.62 2.589 2.589 0 00.014 5.178 3.1 3.1 0 001.147-.207v-.749h-.812a.235.235 0 01-.247-.232v-1.278a.237.237 0 01.247-.244h2.593a.241.241 0 01.232.244l.014 3.474a.333.333 0 01-.1.207 6.537 6.537 0 01-3.2.838 4.6345 4.6345 0 110-9.269zm3.91 8.821l4.039-8.693a.267.267 0 01.221-.143h.129a.258.258 0 01.218.143l4.042 8.689a.229.229 0 01-.221.336h-1.431c-.232 0-.336-.077-.45-.321l-.465-1.018h-3.514l-.465 1.03a.476.476 0 01-.465.31h-1.42a.228.228 0 01-.218-.336zm5.307-2.763l-.978-2.13h-.014l-.97 2.131zm4.386-5.838a.241.241 0 01.244-.232h.324l5.152 4.96h.011v-4.587a.247.247 0 01.247-.247h1.549a.258.258 0 01.247.247v8.689a.244.244 0 01-.247.232h-.207a.43.43 0 01-.169-.063l-5.1-5.126h-.015v4.816a.244.244 0 01-.244.247h-1.538a.255.255 0 01-.247-.247l-.011-8.689zm13.967-.232a4.649 4.649 0 11-4.631 4.662 4.64 4.64 0 014.631-4.662zm0 7.232a2.582 2.582 0 10-2.57-2.57 2.587 2.587 0 002.57 2.57z" fill="#181716"/>
  <path data-name="Pfad 22" d="M264.086 90.446h-15.333v15.333h15.33z" fill="#0d3883"/>
  <path data-name="Pfad 23" d="M250.964 91.788h10.91a.867.867 0 01.869.869v10.911a.869.869 0 01-.869.869h-10.91a.869.869 0 01-.869-.869v-10.91a.869.869 0 01.869-.87zm10.907.192h-10.91a.674.674 0 00-.677.677v10.911a.676.676 0 00.677.677h10.91a.677.677 0 00.677-.677v-10.91a.674.674 0 00-.677-.677z" fill="#fff" fill-rule="evenodd"/>
  <path data-name="Pfad 24" d="M260.448 96.58l-.671 1.05-2.392-.092.563-4.027h-.941l-1.345 4.025h-3.27a.575.575 0 000 1.15h3.27l1.347 4.025h.939l-.571-4.025 2.392-.092.671 1.05h.574l-.382-1.533.384-1.535z" fill="#fff"/>
  <g data-name="Gruppe 46">
    <path data-name="Pfad 25" d="M266.309 111.167l3.434-6.638v-.026h-2.814a.252.252 0 01-.244-.244v-1.409a.251.251 0 01.244-.244h5.488a.258.258 0 01.247.244v.169l-3.319 6.7v.026h2.814a.246.246 0 01.247.244v1.409a.244.244 0 01-.247.244h-5.6a.258.258 0 01-.247-.244v-.232zm7.678-8.317a.254.254 0 01.247-.244h1.589a.244.244 0 01.244.244v5.228a1.578 1.578 0 001.589 1.627 1.595 1.595 0 001.619-1.627v-5.23a.242.242 0 01.244-.244h1.589a.258.258 0 01.247.244v5.333a3.682 3.682 0 01-7.361 0v-5.331zm1.047-2.04a.909.909 0 11.9.918.909.909 0 01-.9-.918zm3.419 0a.909.909 0 11.9.918.909.909 0 01-.9-.918zm4.983 2.04a.244.244 0 01.247-.244h3.861a2.759 2.759 0 01.9 5.384l1.767 3.282a.242.242 0 01-.218.373h-1.706a.232.232 0 01-.207-.118l-1.718-3.422h-.892v3.293a.251.251 0 01-.244.244h-1.539a.247.247 0 01-.247-.244zm3.939 3.615a1.037 1.037 0 00.984-1.033.991.991 0 00-.984-.981h-1.911v2.014zm4.707-3.615a.254.254 0 01.247-.244h1.558a.258.258 0 01.247.244v8.549a.255.255 0 01-.247.244h-1.549a.258.258 0 01-.247-.244zm8.265-.373a4.347 4.347 0 013.127 1.2.241.241 0 01.011.361l-.998 1.047a.23.23 0 01-.321 0 2.654 2.654 0 00-1.744-.657 2.643 2.643 0 00.014 5.281 2.748 2.748 0 001.733-.62.253.253 0 01.333.011l1.01 1.073a.26.26 0 01-.014.35 4.429 4.429 0 01-3.138 1.254 4.65 4.65 0 110-9.3zm4.685.373a.254.254 0 01.247-.244h1.535a.246.246 0 01.247.244v3.253h3.692v-3.253a.244.244 0 01.247-.244h1.535a.254.254 0 01.247.244v8.549a.252.252 0 01-.247.244H311a.247.247 0 01-.247-.244v-3.4h-3.692v3.4a.244.244 0 01-.247.244h-1.527a.258.258 0 01-.247-.244z" fill="#fff"/>
  </g>
  <g data-name="Gruppe 47">
    <path data-name="Pfad 26" d="M284.266 281.459a.218.218 0 01.2-.158h.178a.213.213 0 01.189.123l2.217 6.173h.057l2.186-6.173a.216.216 0 01.189-.123h.178a.214.214 0 01.2.158l1.446 7.53c.034.158-.034.27-.2.27h-.447a.229.229 0 01-.2-.158l-1-5.772h-.046l-2.063 5.915a.231.231 0 01-.189.123h-.2a.227.227 0 01-.189-.123l-2.086-5.915h-.046l-.975 5.772a.22.22 0 01-.2.158h-.448c-.169 0-.235-.112-.2-.27zm8.758.169a.22.22 0 01.212-.212h.448a.22.22 0 01.212.212v7.418a.221.221 0 01-.212.212h-.449a.221.221 0 01-.212-.212zm3.153 0a.212.212 0 01.212-.212h.436a.22.22 0 01.212.212v6.879h3.227a.212.212 0 01.212.212v.324a.212.212 0 01-.212.212h-3.878a.212.212 0 01-.212-.212v-7.415zm4.765 7.338l3.408-7.542a.2.2 0 01.189-.123h.112a.2.2 0 01.189.123l3.385 7.542a.2.2 0 01-.189.293h-.448a.2.2 0 01-.189-.123l-.829-1.85h-3.979l-.818 1.85a.2.2 0 01-.189.123h-.449a.2.2 0 01-.193-.293zm5.324-2.375c-.548-1.222-1.087-2.453-1.635-3.675h-.089l-1.635 3.675zm3.17-5.086a.21.21 0 01.212-.2h.281l5.055 6.3h.023v-5.977a.212.212 0 01.212-.212h.393a.22.22 0 01.212.212v7.542a.21.21 0 01-.212.2h-.2l-5.143-6.42h-.011v6.1a.212.212 0 01-.212.212h-.393a.221.221 0 01-.212-.212v-7.545zm12.111-.2a4.033 4.033 0 11-4.022 4.045 4.027 4.027 0 014.023-4.046zm0 7.284a3.25 3.25 0 10-3.239-3.239 3.258 3.258 0 003.24 3.237zm-38.167 6.81a.212.212 0 01.212-.212h2.9a2.41 2.41 0 012.444 2.387 2.5 2.5 0 01-1.658 2.286l1.535 2.846a.211.211 0 01-.189.324h-.571a.19.19 0 01-.178-.1l-1.492-2.969h-2.14v2.857a.221.221 0 01-.212.212h-.436a.212.212 0 01-.212-.212V295.4zm3.061 3.821a1.608 1.608 0 100-3.216h-2.174v3.216zm7.788-4.148a4.033 4.033 0 11-4.022 4.045 4.027 4.027 0 014.022-4.046zm0 7.284a3.25 3.25 0 10-3.239-3.239 3.258 3.258 0 003.239 3.237zm6.618-7.126a.218.218 0 01.2-.158h.178a.213.213 0 01.189.123l2.217 6.173h.057l2.186-6.173a.216.216 0 01.189-.123h.178a.214.214 0 01.2.158l1.446 7.53c.034.158-.034.27-.2.27h-.448a.229.229 0 01-.2-.158l-1-5.772h-.046l-2.063 5.915a.231.231 0 01-.189.123h-.2a.227.227 0 01-.189-.123l-2.086-5.915h-.046l-.975 5.772a.22.22 0 01-.2.158h-.448c-.169 0-.235-.112-.2-.27zm7.682 7.507l3.408-7.542a.2.2 0 01.189-.123h.112a.2.2 0 01.189.123l3.385 7.542a.2.2 0 01-.189.293h-.447a.2.2 0 01-.189-.123l-.829-1.85h-3.979l-.818 1.85a.2.2 0 01-.189.123h-.448a.2.2 0 01-.194-.293zm5.321-2.375c-.548-1.222-1.087-2.453-1.635-3.675h-.089l-1.635 3.675z" fill="#181716"/>
  </g>
  <g data-name="Gruppe 48">
    <path data-name="Pfad 27" d="M132.518.324a.22.22 0 01.212-.212h.437a.212.212 0 01.212.212v3.272h4.55V.324a.212.212 0 01.212-.212h.436a.22.22 0 01.212.212v7.419a.221.221 0 01-.212.212h-.436a.212.212 0 01-.212-.212V4.349h-4.55v3.4a.212.212 0 01-.212.212h-.436a.221.221 0 01-.212-.212zm7.473 7.341l3.408-7.542a.2.2 0 01.189-.127h.112a.2.2 0 01.189.123l3.385 7.542a.2.2 0 01-.189.293h-.448a.2.2 0 01-.189-.123l-.832-1.85h-3.979l-.818 1.85a.2.2 0 01-.189.123h-.448a.2.2 0 01-.191-.289zm5.321-2.375c-.545-1.222-1.087-2.453-1.635-3.675h-.089l-1.635 3.675zm4.055-5.132a.218.218 0 01.2-.162h.178a.213.213 0 01.189.123l2.22 6.177h.057l2.186-6.173a.216.216 0 01.19-.127h.18a.214.214 0 01.2.158l1.446 7.53c.034.158-.034.27-.2.27h-.446a.229.229 0 01-.2-.158l-1-5.772h-.046l-2.066 5.919a.231.231 0 01-.189.123h-.2a.227.227 0 01-.189-.123l-2.087-5.915h-.046l-.977 5.768a.22.22 0 01-.2.158h-.448c-.169 0-.235-.112-.2-.27l1.448-7.526zm8.758.166a.212.212 0 01.212-.212h2.453a2.108 2.108 0 012.3 2.063 2.112 2.112 0 01-1.1 1.793 1.982 1.982 0 011.346 1.828 2.222 2.222 0 01-2.444 2.163h-2.556a.212.212 0 01-.212-.212V.324zm2.859 6.882a1.383 1.383 0 001.411-1.423 1.487 1.487 0 00-1.6-1.377h-1.85v2.8h2.042zm-.189-3.574a1.3 1.3 0 001.345-1.4 1.243 1.243 0 00-1.346-1.346h-1.827v2.746zm4.226-3.308a.22.22 0 01.212-.212h.425a.212.212 0 01.212.212v4.672a2.122 2.122 0 104.234.023v-4.7a.212.212 0 01.212-.212h.425a.22.22 0 01.212.212v4.747a2.969 2.969 0 11-5.938 0V.324zm8.11 0a.212.212 0 01.212-.212h2.9a2.41 2.41 0 012.446 2.384 2.5 2.5 0 01-1.658 2.286l1.536 2.849a.211.211 0 01-.189.324h-.571a.19.19 0 01-.178-.1l-1.493-2.97h-2.14v2.858a.221.221 0 01-.212.212h-.436a.212.212 0 01-.212-.212V.324zm3.061 3.821a1.632 1.632 0 001.612-1.635 1.629 1.629 0 00-1.612-1.581h-2.176v3.216zm7.807-4.149a3.94 3.94 0 012.711 1.041.217.217 0 01.011.313c-.1.1-.224.212-.313.313s-.169.1-.293-.011a3.4 3.4 0 00-2.129-.875 3.16 3.16 0 00-3.114 3.219 3.186 3.186 0 003.115 3.239 4.212 4.212 0 002.017-.47V5.196h-1.288a.2.2 0 01-.212-.2v-.412a.2.2 0 01.212-.212h1.939a.21.21 0 01.2.212v2.568a.273.273 0 01-.089.178 5.523 5.523 0 01-2.768.74 4.036 4.036 0 010-8.07zm-51.481 14.1a.212.212 0 01.212-.212h.437a.22.22 0 01.212.212v6.879h3.227a.212.212 0 01.212.212v.324a.212.212 0 01-.212.212h-3.879a.212.212 0 01-.212-.212v-7.415zm5.227 0a.22.22 0 01.212-.212h.425a.212.212 0 01.212.212v4.673a2.122 2.122 0 104.234.023v-4.696a.212.212 0 01.212-.212h.427a.22.22 0 01.212.212v4.739a2.969 2.969 0 11-5.938 0v-4.739zm9.656 3.609l-2.184-3.509a.2.2 0 01.189-.313h.605a.232.232 0 01.189.1l1.727 2.969h.011l1.747-2.969a.215.215 0 01.189-.1h.605a.2.2 0 01.189.313l-2.183 3.508 2.263 3.709a.2.2 0 01-.189.313h-.516a.227.227 0 01-.189-.1l-1.916-3.17h-.011l-1.893 3.17a.215.215 0 01-.189.1h-.516c-.2 0-.293-.169-.2-.313zm4.942-3.609a.212.212 0 01.212-.212h4.412a.212.212 0 01.212.212v.324a.212.212 0 01-.212.212h-3.76v2.734h3.216a.22.22 0 01.212.212v.318a.212.212 0 01-.212.212h-3.216v2.857h3.76a.212.212 0 01.212.212v.324a.212.212 0 01-.212.212h-4.411a.212.212 0 01-.212-.212zm7.507-.166a.218.218 0 01.2-.158h.178a.213.213 0 01.189.123l2.217 6.173h.057l2.188-6.172a.216.216 0 01.189-.123h.178a.214.214 0 01.2.158l1.446 7.53c.034.158-.034.27-.2.27h-.448a.229.229 0 01-.2-.158l-1-5.772h-.046l-2.061 5.915a.231.231 0 01-.189.123h-.2a.227.227 0 01-.189-.123l-2.081-5.92h-.046l-.975 5.772a.217.217 0 01-.2.155h-.448c-.169 0-.235-.112-.2-.27l1.443-7.527zm8.758.166a.212.212 0 01.212-.212h2.453a2.053 2.053 0 011.2 3.855 1.982 1.982 0 011.345 1.827 2.222 2.222 0 01-2.444 2.163h-2.556a.212.212 0 01-.212-.212v-7.421zm2.859 6.88a1.383 1.383 0 001.411-1.423 1.487 1.487 0 00-1.6-1.377h-1.849v2.8h2.038zm-.191-3.58a1.3 1.3 0 001.346-1.4 1.243 1.243 0 00-1.345-1.345h-1.828v2.745zm7.777-3.629a4.033 4.033 0 11-4.022 4.045 4.027 4.027 0 014.022-4.045zm0 7.284a3.25 3.25 0 10-3.239-3.239 3.258 3.258 0 003.239 3.239zm5.632-6.955a.22.22 0 01.212-.212h.425a.212.212 0 01.212.212v4.673a2.122 2.122 0 104.234.023v-4.696a.212.212 0 01.212-.212h.425a.22.22 0 01.212.212v4.739a2.969 2.969 0 11-5.938 0v-4.739zm8.113 0a.212.212 0 01.212-.212h2.9a2.41 2.41 0 012.444 2.387 2.5 2.5 0 01-1.658 2.286l1.535 2.846a.211.211 0 01-.189.324h-.571a.19.19 0 01-.178-.1l-1.492-2.969h-2.134v2.857a.221.221 0 01-.212.212h-.442a.212.212 0 01-.212-.212v-7.419zm3.061 3.821a1.608 1.608 0 100-3.216h-2.174v3.216zm7.808-4.145a3.94 3.94 0 012.711 1.041.217.217 0 01.011.313c-.1.1-.224.212-.313.313s-.169.1-.293-.011a3.4 3.4 0 00-2.129-.875 3.229 3.229 0 000 6.454 4.212 4.212 0 002.017-.47v-1.569h-1.288a.2.2 0 01-.212-.2v-.413a.2.2 0 01.212-.212h1.939a.21.21 0 01.2.212v2.567a.273.273 0 01-.089.178 5.523 5.523 0 01-2.768.74 4.036 4.036 0 010-8.07zm-71.651 20.546c.057-.066.112-.146.169-.212.112-.146.235-.235.393-.1a3.1 3.1 0 001.889.851 1.351 1.351 0 001.5-1.234c0-.775-.671-1.234-1.962-1.77-1.234-.539-1.974-1.041-1.974-2.321a2.132 2.132 0 012.387-1.994 3.666 3.666 0 011.916.571.251.251 0 01.066.382c-.046.066-.089.146-.135.212a.254.254 0 01-.393.1 3.112 3.112 0 00-1.469-.516c-1.188 0-1.546.763-1.546 1.234 0 .752.571 1.188 1.512 1.581 1.512.617 2.487 1.188 2.487 2.487a2.229 2.229 0 01-2.421 2.017 3.668 3.668 0 01-2.364-.906.249.249 0 01-.06-.382zm7.576-5.915h-1.951a.212.212 0 01-.212-.212v-.325a.212.212 0 01.212-.212h4.75a.212.212 0 01.212.212v.324a.212.212 0 01-.212.212h-1.95v6.879a.221.221 0 01-.212.212h-.425a.221.221 0 01-.212-.212v-6.878zm4.237-.539a.212.212 0 01.212-.212h2.9a2.41 2.41 0 012.444 2.387 2.5 2.5 0 01-1.658 2.286l1.54 2.845a.211.211 0 01-.189.324h-.571a.19.19 0 01-.178-.1l-1.492-2.969h-2.14v2.857a.221.221 0 01-.212.212h-.438a.212.212 0 01-.212-.212v-7.419zm3.061 3.821a1.608 1.608 0 100-3.216h-2.175v3.216h2.174zm3.259 3.52l3.408-7.542a.2.2 0 01.189-.123h.112a.2.2 0 01.189.123l3.385 7.542a.2.2 0 01-.189.293h-.447a.2.2 0 01-.189-.123l-.832-1.85h-3.98l-.818 1.85a.2.2 0 01-.189.123h-.448a.2.2 0 01-.192-.293zm5.318-2.376c-.548-1.222-1.087-2.453-1.635-3.675h-.089l-1.635 3.675zm2.668 1.489c.057-.066.112-.146.169-.212.112-.146.235-.235.393-.1a3.1 3.1 0 001.893.852 1.351 1.351 0 001.5-1.234c0-.775-.671-1.234-1.962-1.77-1.234-.539-1.974-1.041-1.974-2.321a2.132 2.132 0 012.387-1.994 3.666 3.666 0 011.916.571.251.251 0 01.066.382c-.046.066-.089.146-.135.212a.254.254 0 01-.393.1 3.112 3.112 0 00-1.469-.516c-1.188 0-1.546.763-1.546 1.234 0 .752.571 1.188 1.512 1.581 1.512.617 2.487 1.188 2.487 2.487a2.229 2.229 0 01-2.421 2.017 3.668 3.668 0 01-2.364-.906.249.249 0 01-.06-.382zm6.466-6.454a.212.212 0 01.212-.212h2.454a2.053 2.053 0 011.2 3.855 1.982 1.982 0 011.345 1.827 2.222 2.222 0 01-2.445 2.162h-2.554a.212.212 0 01-.212-.212v-7.421zm2.857 6.882a1.383 1.383 0 001.411-1.423 1.487 1.487 0 00-1.6-1.377h-1.85v2.8h2.042zm-.191-3.575a1.3 1.3 0 001.345-1.4 1.243 1.243 0 00-1.345-1.345h-1.823v2.745zm7.777-3.632a4.033 4.033 0 11-4.022 4.045 4.027 4.027 0 014.027-4.045zm0 7.284a3.25 3.25 0 10-3.239-3.239 3.258 3.258 0 003.244 3.239zm5.631-6.959a.22.22 0 01.212-.212h.425a.212.212 0 01.212.212v4.672a2.122 2.122 0 104.234.023v-4.7a.212.212 0 01.212-.212h.425a.22.22 0 01.212.212v4.739a2.969 2.969 0 11-5.938 0v-4.735zm8.113 0a.212.212 0 01.212-.212h2.9a2.41 2.41 0 012.444 2.387 2.5 2.5 0 01-1.658 2.286l1.535 2.846a.211.211 0 01-.189.324h-.565a.19.19 0 01-.178-.1l-1.492-2.969h-2.146v2.857a.221.221 0 01-.212.212h-.436a.212.212 0 01-.212-.212v-7.42zm3.058 3.821a1.608 1.608 0 100-3.216h-2.174v3.216h2.174zm7.808-4.145a3.94 3.94 0 012.711 1.041.217.217 0 01.011.313c-.1.1-.224.212-.313.313s-.169.1-.293-.011a3.4 3.4 0 00-2.129-.875 3.229 3.229 0 000 6.454 4.212 4.212 0 002.017-.47v-1.571h-1.288a.2.2 0 01-.212-.2v-.416a.2.2 0 01.212-.212h1.939a.21.21 0 01.2.212v2.567a.273.273 0 01-.089.178 5.523 5.523 0 01-2.768.74 4.033 4.033 0 010-8.064z" fill="#181716"/>
  </g>
  <g data-name="Gruppe 49">
    <path data-name="Pfad 28" d="M67.782 217.051H52.456v15.333h15.326z" fill="#0d3883"/>
    <path data-name="Pfad 29" d="M54.665 218.394h10.91a.869.869 0 01.869.869v10.91a.872.872 0 01-.869.872h-10.91a.875.875 0 01-.872-.872v-10.914a.875.875 0 01.872-.865zm10.91.189h-10.91a.677.677 0 00-.68.677v10.91a.679.679 0 00.68.68h10.91a.677.677 0 00.677-.68v-10.911a.677.677 0 00-.677-.676z" fill="#fff" fill-rule="evenodd"/>
    <path data-name="Pfad 30" d="M64.143 223.182l-.671 1.05-2.4-.092.574-4.025h-.944l-1.345 4.025h-3.263a.574.574 0 100 1.147h3.267l1.345 4.025h.944l-.572-4.022 2.4-.092.671 1.05h.574l-.382-1.532.382-1.532z" fill="#fff"/>
  </g>
  <g data-name="Gruppe 50">
    <path data-name="Pfad 31" d="M4.639 220.16a4.99 4.99 0 013.152 1.211.227.227 0 01.026.35l-1.018 1.087a.278.278 0 01-.35.011 2.381 2.381 0 00-1.692-.62 2.589 2.589 0 00.014 5.178 3.106 3.106 0 001.147-.206v-.749h-.815a.234.234 0 01-.244-.232v-1.279a.237.237 0 01.244-.244h2.6a.241.241 0 01.232.244l.011 3.474a.318.318 0 01-.1.207 6.542 6.542 0 01-3.2.838 4.6345 4.6345 0 110-9.269zm5.075.361a.246.246 0 01.244-.247h5.347a.246.246 0 01.244.247v1.406a.244.244 0 01-.244.247h-3.578v1.6h2.943a.251.251 0 01.244.244v1.409a.247.247 0 01-.244.244h-2.943v1.741h3.577a.246.246 0 01.244.247v1.412a.244.244 0 01-.244.247H9.957a.244.244 0 01-.245-.247v-8.549zm7.553-.143a.243.243 0 01.245-.232h.321l5.152 4.96h.011v-4.584a.246.246 0 01.244-.247h1.549a.254.254 0 01.244.247v8.689a.243.243 0 01-.244.232h-.2a.416.416 0 01-.169-.063l-5.1-5.126h-.011v4.817a.244.244 0 01-.244.247h-1.54a.252.252 0 01-.244-.247l-.014-8.692zm9.992.143a.246.246 0 01.244-.247h5.347a.246.246 0 01.244.247v1.406a.244.244 0 01-.244.247h-3.578v1.6h2.94a.251.251 0 01.244.244v1.409a.247.247 0 01-.244.244h-2.94v1.741h3.577a.246.246 0 01.244.247v1.412a.244.244 0 01-.244.247h-5.347a.244.244 0 01-.244-.247v-8.549zm1.549-2.1a.269.269 0 01-.077-.39l.439-.763c.063-.115.258-.089.336-.037l2.193 1.34a.2.2 0 01.077.247l-.27.539a.226.226 0 01-.35.118l-2.344-1.056zm4.854 2.192a.228.228 0 01.221-.336h1.718a.258.258 0 01.221.143l2.131 4.716h.077l2.131-4.716a.258.258 0 01.221-.143H42.1a.229.229 0 01.221.336l-4.056 8.689a.252.252 0 01-.221.143h-.132a.247.247 0 01-.221-.143zm9.708-.089a.246.246 0 01.242-.253h5.347a.246.246 0 01.244.247v1.406a.244.244 0 01-.244.247h-3.577v1.6h2.943a.251.251 0 01.244.244v1.409a.247.247 0 01-.244.244h-2.943v1.741h3.577a.246.246 0 01.244.247v1.415a.244.244 0 01-.244.247h-5.347a.244.244 0 01-.244-.247v-8.549z" fill="#181716"/>
  </g>
  <g data-name="Gruppe 51">
    <path data-name="Pfad 32" d="M126.296 76.691a.244.244 0 01.244-.244h3.009a2.6 2.6 0 012.777 2.4 2.571 2.571 0 01-1.5 2.04 2.444 2.444 0 011.73 2.106 2.635 2.635 0 01-2.814 2.493h-3.2a.247.247 0 01-.244-.244v-8.551zm3.021 3.422a.92.92 0 00.9-.929.876.876 0 00-.9-.878h-1.007v1.807zm.169 3.526a.938.938 0 00.929-.944 1.033 1.033 0 00-1.059-.9h-1.046v1.847h1.172zm3.549 1.512l4.042-8.689a.258.258 0 01.218-.141h.129a.258.258 0 01.218.141l4.04 8.688a.228.228 0 01-.221.336h-1.433c-.232 0-.336-.077-.453-.321l-.465-1.021h-3.511l-.465 1.033a.479.479 0 01-.465.31h-1.42a.227.227 0 01-.215-.336zm5.307-2.763l-.981-2.131h-.011l-.968 2.131zm3.884 1.87l.605-1.073a.333.333 0 01.439-.077 3.853 3.853 0 001.833.711.811.811 0 00.892-.775c0-.542-.453-.955-1.331-1.305-1.11-.439-2.5-1.305-2.5-2.854a2.681 2.681 0 012.983-2.57 4.793 4.793 0 012.763.967.328.328 0 01.077.413l-.66 1c-.089.141-.321.258-.439.169a4.067 4.067 0 00-1.847-.775.75.75 0 00-.815.657c0 .479.387.838 1.409 1.254s2.608 1.188 2.608 2.943a2.837 2.837 0 01-3.051 2.665 4.1 4.1 0 01-2.906-1c-.126-.126-.164-.178-.06-.359zm7.59-7.568a.244.244 0 01.244-.244h5.347a.245.245 0 01.244.244v1.409a.244.244 0 01-.244.244h-3.577v1.6h2.943a.253.253 0 01.244.244v1.409a.244.244 0 01-.244.244h-2.943v1.744h3.577a.245.245 0 01.244.244v1.409a.244.244 0 01-.244.244h-5.347a.247.247 0 01-.244-.244v-8.546zm7.565 0a.244.244 0 01.244-.244h1.537a.253.253 0 01.244.244v6.9h3.076a.244.244 0 01.244.244v1.409a.244.244 0 01-.244.244h-4.857a.247.247 0 01-.244-.244v-8.552z" fill="#181716"/>
  </g>
  <g data-name="Gruppe 52">
    <path data-name="Pfad 33" d="M137.082 118.315a.244.244 0 01.244-.244h3.009a2.6 2.6 0 012.777 2.4 2.571 2.571 0 01-1.5 2.04 2.444 2.444 0 011.73 2.106 2.635 2.635 0 01-2.814 2.493h-3.2a.247.247 0 01-.244-.244v-8.551zm3.021 3.422a.918.918 0 00.9-.929.875.875 0 00-.9-.878h-1.007v1.807zm.169 3.526a.938.938 0 00.929-.944 1.033 1.033 0 00-1.059-.9h-1.046v1.847h1.176zm4.71-6.948a.244.244 0 01.244-.244h5.347a.245.245 0 01.244.244v1.407a.244.244 0 01-.244.244h-3.577v1.6h2.943a.253.253 0 01.244.244v1.412a.244.244 0 01-.244.244h-2.943v1.744h3.577a.245.245 0 01.244.244v1.409a.244.244 0 01-.244.244h-5.347a.247.247 0 01-.244-.244v-8.548zm7.565 0a.244.244 0 01.244-.244h3.861a2.759 2.759 0 01.9 5.384l1.77 3.282a.244.244 0 01-.221.373h-1.715a.232.232 0 01-.207-.118l-1.718-3.422h-.892v3.293a.252.252 0 01-.244.244h-1.534a.247.247 0 01-.244-.244v-8.548zm3.939 3.615a1.034 1.034 0 00.981-1.033.988.988 0 00-.981-.981h-1.914v2.014zm4.7-3.758a.243.243 0 01.244-.232h.321l5.152 4.96h.011v-4.585a.244.244 0 01.244-.244h1.55a.253.253 0 01.244.244v8.689a.243.243 0 01-.244.232h-.207a.379.379 0 01-.169-.063l-5.1-5.126h-.014v4.816a.244.244 0 01-.244.244h-1.537a.252.252 0 01-.244-.244l-.009-8.692z" fill="#fff"/>
  </g>
  <g data-name="Gruppe 53">
    <path data-name="Pfad 34" d="M175.106 143.941a.244.244 0 01.244-.244h1.537a.253.253 0 01.244.244v6.9h3.072a.244.244 0 01.244.244v1.409a.244.244 0 01-.244.244h-4.853a.247.247 0 01-.244-.244zm6.363 0a.253.253 0 01.244-.244h1.589a.245.245 0 01.244.244v5.23a1.6 1.6 0 103.2 0v-5.23a.244.244 0 01.244-.244h1.587a.253.253 0 01.244.244v5.333a3.68 3.68 0 01-7.358 0v-5.333zm8.623 8.316l3.434-6.64v-.026h-2.815a.258.258 0 01-.247-.244v-1.406a.254.254 0 01.247-.244h5.488a.258.258 0 01.247.244v.169l-3.319 6.7v.026h2.814a.244.244 0 01.244.244v1.409a.244.244 0 01-.244.244h-5.605a.252.252 0 01-.244-.244v-.232zm7.808-8.316a.244.244 0 01.244-.244h5.347a.245.245 0 01.244.244v1.409a.244.244 0 01-.244.244h-3.577v1.6h2.943a.253.253 0 01.244.244v1.409a.244.244 0 01-.244.244h-2.943v1.744h3.577a.245.245 0 01.244.244v1.408a.244.244 0 01-.244.244h-5.347a.247.247 0 01-.244-.244zm7.568 0a.244.244 0 01.244-.244h3.865a2.759 2.759 0 01.9 5.384l1.767 3.282a.243.243 0 01-.218.373h-1.719a.232.232 0 01-.207-.118l-1.718-3.422h-.892v3.293a.252.252 0 01-.244.244h-1.537a.247.247 0 01-.244-.244v-8.548zm3.939 3.615a1.036 1.036 0 00.981-1.033.99.99 0 00-.981-.981h-1.914v2.014zm4.7-3.755a.241.241 0 01.244-.232h.324l5.152 4.96h.011v-4.585a.244.244 0 01.247-.244h1.549a.258.258 0 01.247.244v8.689a.244.244 0 01-.247.232h-.207a.39.39 0 01-.169-.063l-5.1-5.126h-.014v4.816a.244.244 0 01-.247.244h-1.535a.258.258 0 01-.247-.244l-.011-8.692z" fill="#fff"/>
  </g>
  <g data-name="Gruppe 54">
    <path data-name="Pfad 35" d="M29.722 122.836a.212.212 0 01.212-.212h2.453a2.053 2.053 0 011.2 3.855 1.982 1.982 0 011.345 1.827 2.222 2.222 0 01-2.444 2.163h-2.557a.212.212 0 01-.212-.212v-7.421zm2.857 6.882a1.383 1.383 0 001.411-1.423 1.487 1.487 0 00-1.6-1.377h-1.85v2.8h2.042zm-.189-3.574a1.3 1.3 0 001.345-1.4 1.243 1.243 0 00-1.345-1.343h-1.828v2.745zm4.323-3.308a.212.212 0 01.212-.212h2.9a2.41 2.41 0 012.446 2.387 2.5 2.5 0 01-1.657 2.29l1.535 2.846a.211.211 0 01-.189.324h-.571a.19.19 0 01-.178-.1l-1.492-2.97h-2.14v2.857a.221.221 0 01-.212.212h-.436a.212.212 0 01-.212-.212v-7.422zm3.058 3.821a1.608 1.608 0 100-3.216h-2.172v3.216zm4.234-3.821a.22.22 0 01.212-.212h.425a.212.212 0 01.212.212v4.673a2.122 2.122 0 104.234.023v-4.7a.212.212 0 01.212-.212h.425a.22.22 0 01.212.212v4.739a2.969 2.969 0 11-5.938 0v-4.735zm9.666 3.609l-2.19-3.508a.2.2 0 01.189-.313h.601a.232.232 0 01.189.1l1.727 2.969h.011l1.747-2.969a.215.215 0 01.189-.1h.605a.2.2 0 01.189.313l-2.186 3.508 2.263 3.709a.2.2 0 01-.189.313H56.3a.227.227 0 01-.189-.1l-1.911-3.166h-.011l-1.893 3.17a.215.215 0 01-.189.1h-.516c-.2 0-.293-.169-.2-.313zm4.94-3.609a.212.212 0 01.212-.212h4.415a.212.212 0 01.212.212v.324a.212.212 0 01-.212.212h-3.767v2.734h3.216a.22.22 0 01.212.212v.324a.212.212 0 01-.212.212h-3.216v2.857h3.764a.212.212 0 01.212.212v.324a.212.212 0 01-.212.212h-4.416a.212.212 0 01-.212-.212zm6.624 0a.212.212 0 01.212-.212h.436a.22.22 0 01.212.212v6.879h3.227a.212.212 0 01.212.212v.324a.212.212 0 01-.212.212H65.44a.212.212 0 01-.212-.212v-7.415zm5.493 0a.212.212 0 01.212-.212h.431a.22.22 0 01.212.212v6.879h3.228a.212.212 0 01.212.212v.324a.212.212 0 01-.212.212h-3.878a.212.212 0 01-.212-.212v-7.415zm5.493 0a.212.212 0 01.212-.212h4.415a.212.212 0 01.212.212v.324a.212.212 0 01-.212.212h-3.767v2.734h3.216a.22.22 0 01.212.212v.324a.212.212 0 01-.212.212h-3.216v2.857h3.764a.212.212 0 01.212.212v.324a.212.212 0 01-.212.212h-4.416a.212.212 0 01-.212-.212zm6.119 6.454c.057-.066.112-.146.169-.212.112-.146.235-.235.393-.1a3.1 3.1 0 001.893.852 1.351 1.351 0 001.5-1.234c0-.775-.671-1.234-1.962-1.77-1.234-.539-1.974-1.041-1.974-2.321a2.132 2.132 0 012.387-1.994 3.666 3.666 0 011.916.571.251.251 0 01.066.382c-.046.066-.089.146-.135.212a.254.254 0 01-.393.1 3.112 3.112 0 00-1.469-.516c-1.188 0-1.546.763-1.546 1.234 0 .752.571 1.188 1.512 1.581 1.512.617 2.487 1.188 2.487 2.487a2.229 2.229 0 01-2.421 2.017 3.667 3.667 0 01-2.364-.907.249.249 0 01-.06-.382zm-52.618 7.311a.212.212 0 01.212-.212h2.476a2.5 2.5 0 11.011 5h-1.85v2.633a.221.221 0 01-.212.212h-.425a.212.212 0 01-.212-.212zm2.633 3.956a1.714 1.714 0 001.7-1.715 1.655 1.655 0 00-1.7-1.6h-1.784v3.316h1.781zm2.622 3.385l3.408-7.541a.2.2 0 01.189-.123h.112a.2.2 0 01.185.123l3.385 7.542a.2.2 0 01-.189.293h-.448a.2.2 0 01-.189-.123l-.829-1.85h-3.974l-.818 1.85a.2.2 0 01-.189.123h-.449a.2.2 0 01-.194-.289zm5.321-2.375c-.548-1.222-1.087-2.453-1.635-3.675h-.092l-1.632 3.679zm3.173-4.966a.212.212 0 01.212-.212h2.9a2.41 2.41 0 012.444 2.387 2.5 2.5 0 01-1.656 2.29l1.535 2.846a.211.211 0 01-.189.324h-.574a.19.19 0 01-.178-.1l-1.494-2.969h-2.14v2.857a.221.221 0 01-.212.212h-.436a.212.212 0 01-.212-.212v-7.423zm3.061 3.821a1.608 1.608 0 100-3.216h-2.177v3.216zm4.332-3.821a.22.22 0 01.212-.212h.448a.22.22 0 01.212.212v7.418a.221.221 0 01-.212.212h-.448a.221.221 0 01-.212-.212zm2.651 6.454c.057-.066.112-.146.169-.212.112-.146.235-.235.393-.1a3.094 3.094 0 001.894.858 1.351 1.351 0 001.5-1.234c0-.775-.671-1.234-1.962-1.77-1.234-.539-1.974-1.041-1.974-2.321a2.132 2.132 0 012.387-1.994 3.666 3.666 0 011.916.571.251.251 0 01.066.382c-.046.066-.089.146-.135.212a.254.254 0 01-.393.1 3.112 3.112 0 00-1.469-.516c-1.188 0-1.546.763-1.546 1.234 0 .752.571 1.188 1.512 1.581 1.512.617 2.487 1.188 2.487 2.487a2.229 2.229 0 01-2.421 2.017 3.667 3.667 0 01-2.364-.907.25.25 0 01-.06-.382z" fill="#181716"/>
  </g>
  <g data-name="Gruppe 55">
    <path data-name="Pfad 36" d="M289.751 42.449a.218.218 0 01.2-.158h.178a.213.213 0 01.189.123l2.217 6.173h.057l2.186-6.173a.216.216 0 01.189-.123h.178a.214.214 0 01.2.158l1.446 7.53c.034.158-.034.27-.2.27h-.448a.229.229 0 01-.2-.158l-1-5.772h-.046l-2.063 5.915a.231.231 0 01-.189.123h-.2a.227.227 0 01-.189-.123l-2.085-5.915h-.046l-.975 5.772a.22.22 0 01-.2.158h-.442c-.169 0-.235-.112-.2-.27l1.449-7.53zm8.658.169a.22.22 0 01.212-.212h.425a.212.212 0 01.212.212v4.673a2.122 2.122 0 104.234.023v-4.7a.212.212 0 01.212-.212h.425a.22.22 0 01.212.212v4.735a2.969 2.969 0 11-5.938 0v-4.735zm1.242-1.773a.534.534 0 11.528.528.528.528 0 01-.528-.528zm2.364 0a.534.534 0 11.528.528.528.528 0 01-.528-.528zm4.5 1.649a.21.21 0 01.212-.2h.281l5.055 6.3h.023v-5.98a.212.212 0 01.212-.212h.393a.22.22 0 01.212.212v7.542a.21.21 0 01-.212.2h-.2l-5.143-6.42h-.011v6.1a.212.212 0 01-.212.212h-.393a.221.221 0 01-.212-.212v-7.545zm12.132-.2a3.94 3.94 0 012.711 1.041.217.217 0 01.011.313l-.3.3c-.089.112-.178.1-.293-.011a3.388 3.388 0 00-2.14-.841 3.223 3.223 0 000 6.443 3.262 3.262 0 002.14-.841.216.216 0 01.27-.034l.336.3a.213.213 0 01-.011.3 3.847 3.847 0 01-2.722 1.087 4.0305 4.0305 0 110-8.061zm4.435.327a.22.22 0 01.212-.212h.436a.212.212 0 01.212.212v3.273h4.55v-3.28a.212.212 0 01.212-.212h.436a.22.22 0 01.212.212v7.418a.221.221 0 01-.212.212h-.432a.212.212 0 01-.212-.212v-3.4h-4.55v3.4a.212.212 0 01-.212.212h-.436a.221.221 0 01-.212-.212v-7.418zm8.549 0a.212.212 0 01.212-.212h4.415a.212.212 0 01.212.212v.324a.212.212 0 01-.212.212h-3.764v2.734h3.216a.22.22 0 01.212.212v.324a.212.212 0 01-.212.212h-3.216v2.857h3.764a.212.212 0 01.212.212v.324a.212.212 0 01-.212.212h-4.415a.212.212 0 01-.212-.212v-7.418zm6.621-.123a.21.21 0 01.212-.2h.281l5.055 6.3h.023v-5.984a.212.212 0 01.212-.212h.393a.22.22 0 01.212.212v7.542a.21.21 0 01-.212.2h-.2l-5.144-6.42h-.011v6.1a.212.212 0 01-.212.212h-.393a.221.221 0 01-.212-.212v-7.545z" fill="#181716"/>
  </g>
  <g data-name="Gruppe 56">
    <path data-name="Pfad 37" d="M355.995 93.111a.2.2 0 01.2-.27h.47a.229.229 0 01.2.158l1.558 5.8h.046l1.87-5.95a.192.192 0 01.189-.123h.2a.2.2 0 01.189.123l1.9 5.95h.046l1.523-5.8a.233.233 0 01.2-.158h.47a.2.2 0 01.2.27l-2.117 7.53a.218.218 0 01-.2.158h-.178a.229.229 0 01-.189-.123l-1.939-6.061h-.057l-1.9 6.061a.231.231 0 01-.189.123h-.178a.212.212 0 01-.2-.158zm10.786-.055a.22.22 0 01.212-.212h.448a.22.22 0 01.212.212v7.418a.221.221 0 01-.212.212h-.448a.221.221 0 01-.212-.212zm3.153 0a.212.212 0 01.212-.212h4.415a.212.212 0 01.212.212v.324a.212.212 0 01-.212.212h-3.76v2.734h3.216a.22.22 0 01.212.212v.324a.212.212 0 01-.212.212h-3.216v2.857h3.764a.212.212 0 01.212.212v.324a.212.212 0 01-.212.212h-4.415a.212.212 0 01-.212-.212zm6.624-.123a.21.21 0 01.212-.2h.281l5.055 6.3h.023v-5.977a.212.212 0 01.212-.212h.393a.22.22 0 01.212.212v7.544a.21.21 0 01-.212.2h-.2l-5.144-6.42h-.011v6.1a.212.212 0 01-.212.212h-.393a.221.221 0 01-.212-.212v-7.547z" fill="#181716"/>
  </g>
  <g data-name="Gruppe 57">
    <path data-name="Pfad 38" d="M226.289 36.498c.057-.066.112-.146.169-.212.112-.146.235-.235.393-.1a3.1 3.1 0 001.893.852 1.351 1.351 0 001.5-1.234c0-.775-.671-1.234-1.962-1.77-1.234-.539-1.974-1.041-1.974-2.321a2.132 2.132 0 012.387-1.994 3.666 3.666 0 011.916.571.251.251 0 01.066.382c-.046.066-.089.146-.135.212a.254.254 0 01-.393.1 3.112 3.112 0 00-1.469-.516c-1.188 0-1.546.763-1.546 1.234 0 .752.571 1.188 1.512 1.581 1.512.617 2.487 1.188 2.487 2.487a2.229 2.229 0 01-2.421 2.017 3.668 3.668 0 01-2.364-.906.25.25 0 01-.059-.383zm7.579-5.918h-1.951a.212.212 0 01-.212-.212v-.325a.212.212 0 01.212-.212h4.751a.212.212 0 01.209.212v.324a.212.212 0 01-.212.212h-1.948v6.879a.221.221 0 01-.212.212h-.428a.221.221 0 01-.212-.212zm4.137-.536a.22.22 0 01.212-.212h.425a.212.212 0 01.212.212v4.673a2.122 2.122 0 104.234.023v-4.7a.212.212 0 01.212-.212h.425a.22.22 0 01.212.212v4.739a2.969 2.969 0 11-5.938 0v-4.736zm9.22.536h-1.948a.212.212 0 01-.212-.212v-.325a.212.212 0 01.212-.212h4.75a.212.212 0 01.212.212v.324a.212.212 0 01-.212.212h-1.95v6.879a.221.221 0 01-.212.212h-.425a.221.221 0 01-.212-.212zm5.617 0h-1.951a.212.212 0 01-.212-.212v-.325a.212.212 0 01.212-.212h4.75a.212.212 0 01.212.212v.324a.212.212 0 01-.212.212h-1.951v6.879a.221.221 0 01-.212.212h-.425a.221.221 0 01-.212-.212zm7.576-.863a3.94 3.94 0 012.711 1.041.217.217 0 01.011.313c-.1.1-.224.212-.313.313s-.169.1-.293-.011a3.4 3.4 0 00-2.129-.875 3.229 3.229 0 000 6.454 4.212 4.212 0 002.017-.47v-1.571h-1.288a.2.2 0 01-.212-.2v-.416a.2.2 0 01.212-.212h1.943a.21.21 0 01.2.212v2.567a.273.273 0 01-.089.178 5.523 5.523 0 01-2.768.74 4.033 4.033 0 010-8.064zm3.64 7.665l3.408-7.542a.2.2 0 01.189-.123h.112a.2.2 0 01.189.123l3.385 7.542a.2.2 0 01-.189.293h-.447a.2.2 0 01-.189-.123l-.829-1.85h-3.98l-.818 1.85a.2.2 0 01-.189.123h-.448a.2.2 0 01-.194-.294zm5.321-2.375c-.548-1.222-1.087-2.453-1.635-3.675h-.089l-1.635 3.675zm3.173-4.963a.212.212 0 01.212-.212h2.9a2.41 2.41 0 012.444 2.387 2.5 2.5 0 01-1.658 2.286l1.538 2.848a.211.211 0 01-.189.324h-.571a.19.19 0 01-.178-.1l-1.492-2.969h-2.14v2.857a.221.221 0 01-.212.212h-.436a.212.212 0 01-.212-.212v-7.422zm3.058 3.821a1.608 1.608 0 100-3.216h-2.174v3.216h2.174zm5.448-3.285h-1.951a.212.212 0 01-.212-.212v-.325a.212.212 0 01.212-.212h4.751a.212.212 0 01.212.212v.324a.212.212 0 01-.212.212h-1.951v6.879a.221.221 0 01-.212.212h-.425a.221.221 0 01-.212-.212z" fill="#181716"/>
  </g>
  <g data-name="Gruppe 58">
    <path data-name="Pfad 39" d="M14.923 250.469a.218.218 0 01.2-.158h.178a.212.212 0 01.189.123l2.217 6.173h.058l2.186-6.173a.216.216 0 01.189-.123h.178a.214.214 0 01.2.158l1.446 7.53c.034.158-.034.27-.2.27h-.445a.229.229 0 01-.2-.158l-1-5.772h-.044l-2.06 5.911a.231.231 0 01-.189.123h-.2a.227.227 0 01-.189-.123l-2.087-5.911h-.046l-.975 5.772a.22.22 0 01-.2.158h-.45c-.169 0-.235-.112-.2-.27zm7.682 7.507l3.408-7.542a.2.2 0 01.189-.123h.112a.2.2 0 01.189.123l3.382 7.542a.2.2 0 01-.189.293h-.448a.2.2 0 01-.189-.123l-.829-1.85h-3.979l-.818 1.85a.2.2 0 01-.189.123h-.45a.2.2 0 01-.189-.293zm5.321-2.375c-.548-1.222-1.087-2.453-1.635-3.675h-.089l-1.635 3.675zm3.17-4.966a.212.212 0 01.212-.212h2.9a2.41 2.41 0 012.444 2.387 2.5 2.5 0 01-1.658 2.286l1.535 2.846a.211.211 0 01-.189.324h-.571a.19.19 0 01-.178-.1l-1.492-2.969h-2.14v2.853a.221.221 0 01-.212.212h-.436a.212.212 0 01-.209-.212v-7.415zm3.061 3.821a1.608 1.608 0 100-3.216h-2.172v3.216zm3.828 2.634c.057-.066.112-.146.169-.212.112-.146.235-.235.393-.1a3.1 3.1 0 001.893.852 1.351 1.351 0 001.5-1.234c0-.775-.671-1.234-1.962-1.77-1.234-.539-1.974-1.041-1.974-2.321a2.132 2.132 0 012.387-1.994 3.666 3.666 0 011.916.571.251.251 0 01.066.382c-.046.066-.089.146-.135.212a.254.254 0 01-.393.1 3.112 3.112 0 00-1.469-.516c-1.188 0-1.546.763-1.546 1.234 0 .752.571 1.188 1.512 1.581 1.512.617 2.487 1.188 2.487 2.487a2.229 2.229 0 01-2.421 2.017 3.667 3.667 0 01-2.364-.906.25.25 0 01-.059-.383zm6.469-6.454a.212.212 0 01.212-.212h4.419a.212.212 0 01.212.212v.324a.212.212 0 01-.212.212h-3.766v2.734h3.216a.22.22 0 01.212.212v.324a.212.212 0 01-.212.212h-3.216v2.857h3.766a.212.212 0 01.212.212v.327a.212.212 0 01-.212.212h-4.417a.212.212 0 01-.213-.212v-7.415zm6.621 0a.22.22 0 01.21-.213h.448a.22.22 0 01.212.212v7.415a.221.221 0 01-.212.212h-.448a.221.221 0 01-.209-.212zm3.156 0a.212.212 0 01.212-.212h.442a.22.22 0 01.212.212v6.879h3.227a.212.212 0 01.212.212v.323a.212.212 0 01-.212.212h-3.883a.212.212 0 01-.212-.212v-7.415zm5.493 0a.212.212 0 01.212-.212h.436a.22.22 0 01.212.212v6.879h3.227a.212.212 0 01.212.212v.323a.212.212 0 01-.212.212h-3.876a.212.212 0 01-.213-.212v-7.415zm5.493 0a.212.212 0 01.212-.212h4.415a.212.212 0 01.212.212v.324a.212.212 0 01-.212.212h-3.759v2.734h3.216a.22.22 0 01.212.212v.324a.212.212 0 01-.212.212h-3.216v2.857h3.764a.212.212 0 01.212.212v.327a.212.212 0 01-.212.212h-4.418a.212.212 0 01-.212-.212v-7.415z" fill="#181716"/>
  </g>
  <path data-name="Pfad 40" d="M260.646 139.555l25.732 25.732-.006 39.453" fill="none" stroke="#bfd76b" stroke-linecap="round" stroke-miterlimit="10" stroke-width=".659"/>
  <g data-name="Gruppe 59" fill="#fff">
    <path data-name="Pfad 41" d="M277.055 127.524a1.513 1.513 0 00-.287.037c-4.492.97-4.423 5.826-4.624 10.112-.143 3.107-.27 5.786-2.106 6.185a3.2 3.2 0 01-.462.032c-.545 0-.935-.419-1.1-1.168a5.373 5.373 0 01.41-3.2 1.127 1.127 0 00-.605-.175 1.157 1.157 0 00-.241.02 2.091 2.091 0 00-1.446 1.2 3.23 3.23 0 00-.2 2.031 2.96 2.96 0 002.9 2.384 5.291 5.291 0 001.015-.106c5.571-1.208 5.677-6.506 6.064-11.532a27.868 27.868 0 01.74-5.795c.011-.011.031-.025-.058-.025z"/>
    <path data-name="Pfad 42" d="M287.813 142.673a2.819 2.819 0 01-.987.189c-1.647-.006-2.266-1.71-2.981-3.686-.789-2.163-1.681-4.61-4.119-5.559l-.258-.1.261-.106c2.674-1.081 4.337-4.162 3.942-5.993-.3-1.426-1.446-3.124-5.106-3.124a14.889 14.889 0 00-3.144.367 17.784 17.784 0 00-7.524 3.686c-2.2 1.893-3.187 3.953-2.791 5.806a2.556 2.556 0 002.631 1.845 3.368 3.368 0 00.479-.037 5.13 5.13 0 01-.255-.82 7.126 7.126 0 011.911-6.268 10.815 10.815 0 015.548-3.339 6.857 6.857 0 011.429-.161 3.258 3.258 0 013.526 2.55 5.58 5.58 0 01-2.969 5.5.4.4 0 00-.2.482c.052.212.252.341.559.364h.052l.029.037a12.209 12.209 0 012.174 4.908c.766 3.253 1.658 6.718 4.51 6.718a4.354 4.354 0 00.947-.112 2.879 2.879 0 001.736-.924 2.3 2.3 0 00.651-2.028l-.052-.2zm.427-13.2h.037a1.967 1.967 0 00-.04-3.933h-.04a1.968 1.968 0 00.043 3.933zm18.288-3.893h.037a1.968 1.968 0 00-.037-3.936h-.04a1.9681 1.9681 0 00.04 3.936z"/>
    <path data-name="Pfad 43" d="M310.183 131.884c-.023-.141-.215-.169-.373-.169-.046 0-.089.009-.129.009l-.072.2a4.163 4.163 0 01-1.27 1.873q-.1.01-.192.011c-.387 0-.5-.534-.539-.711a10.116 10.116 0 01.006-2.47 9.9 9.9 0 00.011-2.4 1.3 1.3 0 00-1.374-1.107 2.2 2.2 0 00-.465.052 2.06 2.06 0 00-1.546 1.469 8.36 8.36 0 00-.539 2.031l-.172.3a20.612 20.612 0 01-1.222 1.911 2.136 2.136 0 01-.318.336 10.543 10.543 0 00-.211-2.222c-.341-1.649-1.262-1.9-1.833-1.9a2.515 2.515 0 00-.459.046 1.937 1.937 0 00-.717.275c-.017-.172-.364-.531-1.081-.531a3.491 3.491 0 00-.8.109h-.014a6.274 6.274 0 00-2.08.795l-.032.02a6.893 6.893 0 00-3.1 5.141l-.341.869a4.1 4.1 0 01-1.273 1.876 1.439 1.439 0 01-.189.009c-.387 0-.5-.536-.542-.706a10 10 0 01.009-2.47 10.111 10.111 0 00.014-2.41 1.308 1.308 0 00-1.374-1.1 2.008 2.008 0 00-.462.055 2.059 2.059 0 00-1.549 1.469 9.016 9.016 0 00-.456 5.026 3.279 3.279 0 00.9 2.008 1.948 1.948 0 001.383.445 2.427 2.427 0 00.522-.057c2-.43 2.946-2.309 3.408-3.551.009.046.014.089.026.132q.413 2 2.045 2a2.858 2.858 0 00.548-.06c2.011-.416 3.1-2.217 3.758-4.151l.037.006c.442 4.438-.361 7.017-2.513 7.458a2.513 2.513 0 01-.382.034c-.367 0-1.016-.178-1.257-1.337a2.813 2.813 0 01-.052-.379h-.02a1.985 1.985 0 00-1.452.792 1.486 1.486 0 00-.261 1.168 2.107 2.107 0 002.215 1.4 4.608 4.608 0 00.9-.086c2.335-.479 4.128-2.06 5.407-4.633a12.772 12.772 0 001.228-4.392l.37-.379c.3-.353.565-.726.852-1.119.118-.172.247-.347.37-.522l.095-.118a7.675 7.675 0 00.164 1.343 3.6 3.6 0 00.9 2.1 1.707 1.707 0 001.285.445 2.454 2.454 0 00.525-.055c2.14-.462 3.17-2.582 3.6-3.8l.095-.27a.5.5 0 00-.006-.1zm-12.3-.2a4.771 4.771 0 01-1.036 3.167 1.1 1.1 0 01-.717.359h-.112a1.176 1.176 0 01-.981-.663 3.773 3.773 0 01.889-3.629c.009-.009 1.225-1.188 2.091-1.17a.269.269 0 01.252.115c-.4.3-.422 1.239-.387 1.822z"/>
  </g>
  <g data-name="Gruppe 60">
    <path data-name="Pfad 45" d="M224.263 135.188l10.164 9.805h13.626l7.611-6.916" fill="none" stroke="#fff" stroke-linecap="round" stroke-miterlimit="10" stroke-width=".55" stroke-dasharray="0 0.982"/>
  </g>
  <path data-name="Pfad 48" d="M219.877 134.113l36.243 2.126" fill="none" stroke="#bfd76b" stroke-linecap="round" stroke-miterlimit="10" stroke-width=".659"/>
  <path data-name="Pfad 49" d="M263.441 136.238a7.318 7.318 0 11-7.318-7.318 7.318 7.318 0 017.318 7.318z" fill="#fff" fill-rule="evenodd"/>
  <path data-name="Pfad 47" d="M225.645 134.113a5.723 5.723 0 11-5.723-5.723 5.723 5.723 0 015.723 5.723z" fill="#aeca35" fill-rule="evenodd"/>
</svg>
